<svg xmlns="http://www.w3.org/2000/svg" viewBox="0 0 512 512" fill="none">
  <defs>
    <linearGradient id="bg" x1="0" y1="0" x2="512" y2="512" gradientUnits="userSpaceOnUse">
      <stop offset="0" stop-color="#059669"/>
      <stop offset="1" stop-color="#047857"/>
    </linearGradient>
    <linearGradient id="s1" x1="140" y1="120" x2="300" y2="280" gradientUnits="userSpaceOnUse">
      <stop offset="0" stop-color="#ffffff" stop-opacity="0.95"/>
      <stop offset="1" stop-color="#ffffff" stop-opacity="0.7"/>
    </linearGradient>
    <linearGradient id="s2" x1="210" y1="230" x2="370" y2="390" gradientUnits="userSpaceOnUse">
      <stop offset="0" stop-color="#ffffff" stop-opacity="0.7"/>
      <stop offset="1" stop-color="#ffffff" stop-opacity="0.45"/>
    </linearGradient>
  </defs>
  <!-- Background -->
  <rect width="512" height="512" rx="112" fill="url(#bg)"/>
  <!-- Subtle grid pattern for spatial feel -->
  <path d="M256 128L384 192V320L256 384L128 320V192L256 128Z" stroke="white" stroke-opacity="0.08" stroke-width="2" fill="none"/>
  <path d="M256 168L344 212V300L256 344L168 300V212L256 168Z" stroke="white" stroke-opacity="0.06" stroke-width="1.5" fill="none"/>
  <!-- S lettermark - top diagonal stroke -->
  <path d="M310 148C310 148 280 132 248 132C216 132 186 148 186 178C186 208 216 218 250 228C284 238 326 250 326 292C326 338 290 368 248 368C216 368 192 356 178 348" stroke="url(#s1)" stroke-width="42" stroke-linecap="round" fill="none"/>
  <!-- S lettermark - bottom diagonal stroke (3D depth) -->
  <path d="M310 148C310 148 280 132 248 132C216 132 186 148 186 178C186 208 216 218 250 228C284 238 326 250 326 292C326 338 290 368 248 368C216 368 192 356 178 348" stroke="url(#s2)" stroke-width="42" stroke-linecap="round" fill="none" transform="translate(6 6)"/>
  <!-- Isometric cube accent - top right -->
  <path d="M388 148L416 164V196L388 212L360 196V164L388 148Z" fill="white" fill-opacity="0.25"/>
  <path d="M388 148L416 164L388 180L360 164L388 148Z" fill="white" fill-opacity="0.4"/>
  <path d="M388 180L416 164V196L388 212V180Z" fill="white" fill-opacity="0.2"/>
  <!-- Isometric cube accent - bottom left -->
  <path d="M124 300L152 316V348L124 364L96 348V316L124 300Z" fill="white" fill-opacity="0.15"/>
  <path d="M124 300L152 316L124 332L96 316L124 300Z" fill="white" fill-opacity="0.25"/>
  <path d="M124 332L152 316V348L124 364V332Z" fill="white" fill-opacity="0.1"/>
</svg>
